<svg xmlns="http://www.w3.org/2000/svg" viewBox="0 0 24 24" fill="none" stroke="#dc2626" stroke-width="2.5" stroke-linecap="round" stroke-linejoin="round">
  <path d="M14.4 14.4 9.6 9.6"/>
  <path d="M18.65 21.35a2 2 0 0 1-2.83 0l-5.66-5.66a2 2 0 0 1 0-2.83l.06-.06a2 2 0 0 1 2.83 0l5.66 5.66a2 2 0 0 1 0 2.83z"/>
  <path d="m21.5 21.5-1.4-1.4"/>
  <path d="M3.9 3.9 2.5 2.5"/>
  <path d="M6.4 2.05a2 2 0 0 1 2.83 0l5.66 5.66a2 2 0 0 1 0 2.83l-.06.06a2 2 0 0 1-2.83 0l-5.66-5.66a2 2 0 0 1 0-2.83z"/>
</svg>
